<svg id="Layer_1" data-name="Layer 1" xmlns="http://www.w3.org/2000/svg" viewBox="0 0 552.4 493.8"><defs><style>.cls-1{fill:none;stroke:#2a90ff;stroke-miterlimit:10;}</style></defs><title>pura</title><rect class="cls-1" x="238.6" y="258.5" width="76.6" height="7.1"/><polygon class="cls-1" points="234 254 234 259.2 236.7 259.2 240.1 256.6 313.9 256.6 317.6 259.2 321 259.2 320.7 254 234 254"/><polyline class="cls-1" points="234 254 223.3 244 331.9 244 320.7 254"/><path class="cls-1" d="M253,286.7l-5.2-4.1s6-.8,7.9-1.9,6.1-5.1,8.1-6.7c3.9-3.4,9.8-3.4,9.8-3.4h66.5s6.4.6,9.3,3.9,5.2,5.4,7.4,6.5,9.2,2.1,9.2,2.1l-4.4,3.6" transform="translate(-29.7 -42.7)"/><rect class="cls-1" x="242.5" y="221.6" width="68.5" height="6.34"/><polygon class="cls-1" points="238.4 217.7 238.4 222.3 240.8 222.3 243.8 220 309.7 220 313 222.3 316 222.3 315.8 217.7 238.4 217.7"/><polyline class="cls-1" points="238.4 217.7 228.8 208.7 325.8 208.7 315.8 217.7"/><path class="cls-1" d="M258.5,251.4l-4.7-3.7s5.4-.7,7.1-1.7,5.4-4.5,7.2-6c3.5-3,8.8-3,8.8-3h59.4s5.8.5,8.3,3.5a28.6,28.6,0,0,0,6.7,5.8c1.8,1,8.1,1.8,8.1,1.8l-3.9,3.3" transform="translate(-29.7 -42.7)"/><rect class="cls-1" x="245.5" y="188.6" width="62" height="5.74"/><polygon class="cls-1" points="241.7 185 241.7 189.2 243.9 189.2 246.6 187.1 306.4 187.1 309.4 189.2 312.1 189.2 311.9 185 241.7 185"/><polyline class="cls-1" points="241.7 185 233.1 176.9 320.9 176.9 311.9 185"/><path class="cls-1" d="M262.8,219.6l-4.3-3.3s4.9-.7,6.4-1.6,5-4,6.6-5.4c3.2-2.7,8-2.7,8-2.7h53.8s5.2.4,7.5,3.1a25.1,25.1,0,0,0,6,5.3c1.7.9,7.4,1.6,7.4,1.6l-3.5,3" transform="translate(-29.7 -42.7)"/><rect class="cls-1" x="248.6" y="158.9" width="54" height="5"/><polygon class="cls-1" points="245.3 155.8 245.3 159.4 247.2 159.4 249.6 157.6 301.6 157.6 304.2 159.4 306.6 159.4 306.4 155.8 245.3 155.8"/><polyline class="cls-1" points="245.3 155.8 237.7 148.7 314.3 148.7 306.4 155.8"/><path class="cls-1" d="M267.5,191.4l-3.7-2.9s4.2-.6,5.5-1.3,4.3-3.6,5.8-4.8,6.9-2.3,6.9-2.3h46.8s4.6.4,6.6,2.7a22.6,22.6,0,0,0,5.2,4.6c1.5.8,6.5,1.4,6.5,1.4l-3.1,2.6" transform="translate(-29.7 -42.7)"/><rect class="cls-1" x="250.7" y="132.9" width="48.2" height="4.46"/><polygon class="cls-1" points="247.8 130.2 247.8 133.4 249.5 133.4 251.6 131.8 298 131.8 300.4 133.4 302.5 133.4 302.3 130.2 247.8 130.2"/><polyline class="cls-1" points="247.8 130.2 241.1 123.9 309.4 123.9 302.3 130.2"/><path class="cls-1" d="M270.8,166.5l-3.3-2.6s3.7-.5,4.9-1.2a41.5,41.5,0,0,0,5.2-4.2c2.4-2.1,6.2-2.1,6.2-2.1h41.8s4,.4,5.8,2.5a23.1,23.1,0,0,0,4.7,4.1c1.3.7,5.8,1.2,5.8,1.2l-2.8,2.3" transform="translate(-29.7 -42.7)"/><rect class="cls-1" x="252.5" y="109.8" width="42.5" height="3.93"/><polygon class="cls-1" points="249.9 107.4 249.9 110.2 251.4 110.2 253.3 108.8 294.2 108.8 296.2 110.2 298.1 110.2 298 107.4 249.9 107.4"/><polyline class="cls-1" points="249.9 107.4 244 101.8 304.2 101.8 298 107.4"/><path class="cls-1" d="M273.7,144.5l-2.9-2.3a20.9,20.9,0,0,0,4.4-1.1,38.4,38.4,0,0,0,4.5-3.7,9.4,9.4,0,0,1,5.4-1.8H322s3.5.3,5.1,2.1a17.4,17.4,0,0,0,4.1,3.6c1.2.7,5.1,1.2,5.1,1.2l-2.4,2" transform="translate(-29.7 -42.7)"/><rect class="cls-1" x="255.3" y="89.5" width="36.5" height="3.38"/><polygon class="cls-1" points="253.1 87.4 253.1 89.9 254.4 89.9 256 88.6 291.1 88.6 292.9 89.9 294.5 89.9 294.4 87.4 253.1 87.4"/><polyline class="cls-1" points="253.1 87.4 248 82.6 299.7 82.6 294.4 87.4"/><path class="cls-1" d="M277.7,125.3l-2.5-1.9a14.2,14.2,0,0,0,3.8-1,38.9,38.9,0,0,0,3.9-3.2,8.2,8.2,0,0,1,4.6-1.5h31.7s3.1.2,4.4,1.8a21.1,21.1,0,0,0,3.6,3.1,24.1,24.1,0,0,0,4.3,1l-2,1.7" transform="translate(-29.7 -42.7)"/><rect class="cls-1" x="257.6" y="71.8" width="31.4" height="2.91"/><polygon class="cls-1" points="255.7 70 255.7 72.1 256.8 72.1 258.2 71 288.4 71 289.9 72.1 291.3 72.1 291.2 70 255.7 70"/><polyline class="cls-1" points="255.7 70 251.3 65.9 295.8 65.9 291.2 70"/><path class="cls-1" d="M281,108.5l-2.1-1.6a18,18,0,0,0,3.2-.8c.9-.6,2.5-2.1,3.3-2.8a7.4,7.4,0,0,1,4.1-1.3h27.2s2.6.2,3.8,1.6a19.4,19.4,0,0,0,3.1,2.6,14.5,14.5,0,0,0,3.7.8l-1.8,1.5" transform="translate(-29.7 -42.7)"/><rect class="cls-1" x="259.3" y="56.5" width="27" height="2.5"/><polygon class="cls-1" points="257.7 54.9 257.7 56.8 258.6 56.8 259.8 55.9 285.8 55.9 287.1 56.8 288.3 56.8 288.2 54.9 257.7 54.9"/><polyline class="cls-1" points="257.7 54.9 253.9 51.4 292.1 51.4 288.2 54.9"/><path class="cls-1" d="M283.6,94.1l-1.8-1.5a9.5,9.5,0,0,0,2.7-.6,33.6,33.6,0,0,0,2.9-2.4,6.1,6.1,0,0,1,3.5-1.2h23.4a5.5,5.5,0,0,1,3.2,1.4,11.8,11.8,0,0,0,2.7,2.3,14.4,14.4,0,0,0,3.2.7l-1.5,1.3" transform="translate(-29.7 -42.7)"/><rect class="cls-1" x="260.4" y="43.3" width="23.5" height="2.18"/><polygon class="cls-1" points="259 41.9 259 43.5 259.8 43.5 260.9 42.7 283.5 42.7 284.6 43.5 285.7 43.5 285.6 41.9 259 41.9"/><polyline class="cls-1" points="259 41.9 255.7 38.9 289 38.9 285.6 41.9"/><path class="cls-1" d="M285.5,81.5l-1.7-1.2a14,14,0,0,0,2.5-.6,15.7,15.7,0,0,0,2.4-2.1c1.3-1,10.2-10.1,13.2-10.2s12.2,9.4,13.1,10.4a11,11,0,0,0,2.3,2,15.9,15.9,0,0,0,2.8.6l-1.3,1.1" transform="translate(-29.7 -42.7)"/><rect class="cls-1" x="225.5" y="308.9" width="107" height="4.95"/><polygon class="cls-1" points="219.1 302.7 219.1 309.9 222.8 309.9 227.5 306.3 330.5 306.3 335.8 309.9 340.5 309.9 340.1 302.7 219.1 302.7"/><polyline class="cls-1" points="219.1 302.7 204.1 288.7 355.7 288.7 340.1 302.7"/><path class="cls-1" d="M233.8,331.4l-7.3-5.7s8.3-1.2,11-2.7,8.5-7,11.3-9.4c5.5-4.6,13.8-4.6,13.8-4.6h92.8s9,.7,12.9,5.4c2.3,2.6,7.4,7.4,10.4,9.1s12.8,2.8,12.8,2.8l-6.1,5.1" transform="translate(-29.7 -42.7)"/><polyline class="cls-1" points="228.8 313.8 228.8 368.1 233.7 368.1 233.7 313.8"/><polyline class="cls-1" points="325.8 313.8 325.8 368.1 321 368.1 321 313.8"/><line class="cls-1" x1="241.7" y1="313.8" x2="241.7" y2="353.3"/><line class="cls-1" x1="312.6" y1="313.8" x2="312.6" y2="353.3"/><path class="cls-1" d="M345,410.9l-.5-14.9h-5.2v3.6h-3.6c-1.3,0-1.9,5.1-1.9,5.1H279.6s-.8-5.1-2.3-5.1h-3.2V396h-5v15.2" transform="translate(-29.7 -42.7)"/><path class="cls-1" d="M330.5,371.8" transform="translate(-29.7 -42.7)"/><rect class="cls-1" x="262.4" y="320" width="27.9" height="33.31"/><path class="cls-1" d="M315.1,392.6v.8H296.8v-.8a1.6,1.6,0,0,0-1.6-1.6h-1.1V368.1h1.1a1.6,1.6,0,0,0,1.6-1.6v-.9h18.3v.9a1.6,1.6,0,0,0,1.6,1.6h1.2V391h-1.2A1.6,1.6,0,0,0,315.1,392.6Z" transform="translate(-29.7 -42.7)"/><line class="cls-1" x1="276.4" y1="322.9" x2="276.4" y2="350.7"/><rect class="cls-1" x="415.1" y="368.1" width="14.5" height="38.97"/><line class="cls-1" x1="411.3" y1="362.1" x2="415.1" y2="366.4"/><line class="cls-1" x1="433.5" y1="362.1" x2="429.7" y2="366.4"/><rect class="cls-1" x="413.4" y="366.5" width="18" height="1.66"/><path class="cls-1" d="M440.7,404.7h-1.1V392.3h1.2l.6,1.4h.8c.5,0,.8,1.8.8,1.8h.8c.8,0,1.1,3,1.1,3s1.1.5,1.1.9v3.9h1v1.4Z" transform="translate(-29.7 -42.7)"/><path class="cls-1" d="M463.3,404.7h1.1V392.3h-1.2l-.6,1.4h-.9c-.4,0-.7,1.8-.7,1.8h-.8c-.8,0-1.1,3-1.1,3s-1.1.5-1.1.9v3.9h-1v1.4Z" transform="translate(-29.7 -42.7)"/><path class="cls-1" d="M447,404.7" transform="translate(-29.7 -42.7)"/><line class="cls-1" x1="417.2" y1="362" x2="427.3" y2="362"/><line class="cls-1" x1="414" y1="352.9" x2="430.5" y2="352.9"/><path class="cls-1" d="M442.4,398.5a4.9,4.9,0,0,1,.4,2.2v1.6l.7.4v.7h-5.1v-6.2h.8l.4.7S441.6,397.8,442.4,398.5Z" transform="translate(-29.7 -42.7)"/><path class="cls-1" d="M461.8,398.5a5.1,5.1,0,0,0-.4,2.2v1.6l-.7.4v.7h5.1v-6.2H465l-.4.7S462.6,397.8,461.8,398.5Z" transform="translate(-29.7 -42.7)"/><polyline class="cls-1" points="413.2 352.9 418.6 347.7 425.9 347.7 431.3 352.9"/><rect class="cls-1" x="416.7" y="346.7" width="10.8" height="1.02"/><path class="cls-1" d="M421.8,341.9h.6a2.1,2.1,0,0,1,2.1,2.1v2.6a0,0,0,0,1,0,0h-4.8a0,0,0,0,1,0,0V344A2.1,2.1,0,0,1,421.8,341.9Z"/><rect class="cls-1" x="413.5" y="407.1" width="18" height="1.26"/><path class="cls-1" d="M466.1,456.9H438.6l.5-1.6a6.5,6.5,0,0,1,4.1-4.3h18.1a6.5,6.5,0,0,1,4.3,4.4Z" transform="translate(-29.7 -42.7)"/><rect class="cls-1" x="407.7" y="414.2" width="29.9" height="1.39"/><rect class="cls-1" x="408.8" y="415.6" width="27.5" height="3.42"/><rect class="cls-1" x="407.5" y="419" width="30.2" height="4.68"/><rect class="cls-1" x="405.7" y="423.7" width="33.6" height="6.79"/><rect class="cls-1" x="418" y="371.1" width="9.3" height="33" rx="4.3" ry="4.3"/><rect class="cls-1" x="421" y="374.5" width="3.1" height="26.1" rx="1.5" ry="1.5"/><rect class="cls-1" x="128.3" y="368.1" width="14.5" height="38.97"/><line class="cls-1" x1="124.5" y1="362.1" x2="128.3" y2="366.4"/><line class="cls-1" x1="146.7" y1="362.1" x2="142.8" y2="366.4"/><rect class="cls-1" x="126.6" y="366.5" width="18" height="1.66"/><path class="cls-1" d="M153.9,404.7h-1.2V392.3H154l.5,1.4h.9c.5,0,.7,1.8.7,1.8h.8c.8,0,1.1,3,1.1,3s1.1.5,1.1.9v3.9h1v1.4Z" transform="translate(-29.7 -42.7)"/><path class="cls-1" d="M176.4,404.7h1.1V392.3h-1.2l-.5,1.4h-.9c-.5,0-.8,1.8-.8,1.8h-.7c-.8,0-1.1,3-1.1,3s-1.1.5-1.1.9v3.9h-1v1.4Z" transform="translate(-29.7 -42.7)"/><path class="cls-1" d="M160.1,404.7" transform="translate(-29.7 -42.7)"/><line class="cls-1" x1="130.4" y1="362" x2="140.4" y2="362"/><line class="cls-1" x1="127.2" y1="352.9" x2="143.6" y2="352.9"/><path class="cls-1" d="M155.5,398.5c.5.5.5,2,.5,2.2v1.6l.7.4v.7h-5.2v-6.2h.9l.4.7S154.8,397.8,155.5,398.5Z" transform="translate(-29.7 -42.7)"/><path class="cls-1" d="M174.9,398.5a5.1,5.1,0,0,0-.4,2.2v1.6l-.7.4v.7H179v-6.2h-.9l-.4.7S175.7,397.8,174.9,398.5Z" transform="translate(-29.7 -42.7)"/><polyline class="cls-1" points="126.4 352.9 131.7 347.7 139 347.7 144.4 352.9"/><rect class="cls-1" x="129.9" y="346.7" width="10.8" height="1.02"/><path class="cls-1" d="M134.9,341.9h.6a2.1,2.1,0,0,1,2.1,2.1v2.6a0,0,0,0,1,0,0h-4.8a0,0,0,0,1,0,0V344A2.1,2.1,0,0,1,134.9,341.9Z"/><rect class="cls-1" x="126.6" y="407.1" width="18" height="1.26"/><path class="cls-1" d="M179.2,456.9H151.7l.5-1.6a7,7,0,0,1,4.1-4.3h18.2a7,7,0,0,1,4.3,4.4Z" transform="translate(-29.7 -42.7)"/><rect class="cls-1" x="120.9" y="414.2" width="29.9" height="1.39"/><rect class="cls-1" x="122" y="415.6" width="27.5" height="3.42"/><rect class="cls-1" x="120.6" y="419" width="30.2" height="4.68"/><rect class="cls-1" x="118.8" y="423.7" width="33.6" height="6.79"/><rect class="cls-1" x="131.2" y="371.1" width="9.3" height="33" rx="4.3" ry="4.3"/><rect class="cls-1" x="134.1" y="374.5" width="3.1" height="26.1" rx="1.5" ry="1.5"/><line class="cls-1" x1="142.8" y1="368.1" x2="415.1" y2="368.1"/><line class="cls-1" x1="152.4" y1="430.5" x2="405.7" y2="430.5"/><line class="cls-1" x1="142.8" y1="374.5" x2="415.1" y2="374.5"/><line class="cls-1" x1="152.4" y1="427.1" x2="405.7" y2="427.1"/><path class="cls-1" d="M423.9,426.8h7.2v32.5h-7.3c-7.7,0-14,1.3-14,2.8V464H207.2v-1.9c0-1.5-6.3-2.8-14-2.8h-8.5V426.8h8.5c7.7,0,14-1.2,14-2.8v-2.1H409.9V424C409.9,425.6,416.2,426.8,423.9,426.8Z" transform="translate(-29.7 -42.7)"/><path class="cls-1" d="M85.4,431.2H473.5a27.7,27.7,0,0,1,27.7,27.7v1.8a0,0,0,0,1,0,0H57.7a0,0,0,0,1,0,0v-1.8a27.7,27.7,0,0,1,27.7-27.7Z"/><path class="cls-1" d="M459.1,331.5a14.3,14.3,0,0,0-14.2-14.3,14.1,14.1,0,0,0-7.6,2.2,8.9,8.9,0,0,0-5.9-2.3,8.4,8.4,0,0,0-2.7.4,17.3,17.3,0,0,0-32.7,7.9,24.5,24.5,0,0,0,.2,2.7,12.5,12.5,0,0,0,2,24.9h1.4a4.7,4.7,0,0,0,4.5,3.4,5.2,5.2,0,0,0,2.8-.9,21.1,21.1,0,0,0,36.5-3.3,5.7,5.7,0,0,0,5.5-5.8,4.9,4.9,0,0,0-.1-1.2A14.1,14.1,0,0,0,459.1,331.5Z" transform="translate(-29.7 -42.7)"/><path class="cls-1" d="M422.4,410.6V380.7a3.8,3.8,0,0,0-2.2-3.4L405.1,371a4.1,4.1,0,0,1-2.5-3.3l-1.8-12.8" transform="translate(-29.7 -42.7)"/><path class="cls-1" d="M447.1,350.5,445.2,361a9.1,9.1,0,0,1-4.2,6.1l-11.6,7.2a4.9,4.9,0,0,0-2.4,4.2v11.8a.3.3,0,0,0,.3.3l2.7-1-.3,1.1-2.1,1.2a1.1,1.1,0,0,0-.6,1v18.2" transform="translate(-29.7 -42.7)"/><path class="cls-1" d="M418.7,363.7l1.5,3.1a4.6,4.6,0,0,1,.5,2.3v3.8a1,1,0,0,1-1.4,1l-12.4-5a3.4,3.4,0,0,1-2.2-2.7l-.3-2.3a1.6,1.6,0,0,1,1.4-1.7l1.5-.2a3.5,3.5,0,0,0,1.4-.6l2.4-1.6" transform="translate(-29.7 -42.7)"/><path class="cls-1" d="M428.5,364l-3.1,2.4a2.9,2.9,0,0,0-1.2,2.4v3.5a.9.9,0,0,0,1.3.8l14.6-8.7a3.4,3.4,0,0,0,1.7-2.5l.5-2.8a2,2,0,0,0-1.4-2.2h-.5" transform="translate(-29.7 -42.7)"/><path class="cls-1" d="M442.2,354.5l.3.4a1.2,1.2,0,0,0,1.7-.9l.7-2.2" transform="translate(-29.7 -42.7)"/><path class="cls-1" d="M403.1,356.2l.3,2.2a1.5,1.5,0,0,0,1.7,1.2h.7a3.2,3.2,0,0,0,1.7-.9l1-1.2" transform="translate(-29.7 -42.7)"/><path class="cls-1" d="M422.1,364.3h0a1.1,1.1,0,0,0,1.5.8l1.6-.7" transform="translate(-29.7 -42.7)"/><path class="cls-1" d="M414.4,336a1.8,1.8,0,0,0-1.8,1.8" transform="translate(-29.7 -42.7)"/><path class="cls-1" d="M416.1,337.1a1.9,1.9,0,0,0-1.7-1.1" transform="translate(-29.7 -42.7)"/><path class="cls-1" d="M416.9,336.9l-.8.2" transform="translate(-29.7 -42.7)"/><path class="cls-1" d="M418.5,338.5a1.6,1.6,0,0,0-1.6-1.6" transform="translate(-29.7 -42.7)"/><path class="cls-1" d="M418.4,338.8a.4.4,0,0,0,.1-.3" transform="translate(-29.7 -42.7)"/><path class="cls-1" d="M415.3,338.5c0,.2,0,.3.1.4" transform="translate(-29.7 -42.7)"/><path class="cls-1" d="M416.1,337.1a1.6,1.6,0,0,0-.8,1.4" transform="translate(-29.7 -42.7)"/><path class="cls-1" d="M412.5,337.8a1.3,1.3,0,0,0-1.3,1.3" transform="translate(-29.7 -42.7)"/><path class="cls-1" d="M412.6,337.8h-.1" transform="translate(-29.7 -42.7)"/><line class="cls-1" x1="391.2" y1="296.1" x2="388.7" y2="296.2"/><line class="cls-1" x1="381.5" y1="296.4" x2="380.3" y2="296.5"/><path class="cls-1" d="M435.4,326.4a1.8,1.8,0,0,0-1.8,1.8" transform="translate(-29.7 -42.7)"/><path class="cls-1" d="M437.1,327.5a1.8,1.8,0,0,0-1.7-1.1" transform="translate(-29.7 -42.7)"/><path class="cls-1" d="M437.9,327.3a1.2,1.2,0,0,0-.8.2" transform="translate(-29.7 -42.7)"/><path class="cls-1" d="M439.5,328.9a1.6,1.6,0,0,0-1.6-1.6" transform="translate(-29.7 -42.7)"/><path class="cls-1" d="M439.5,329.2v-.3" transform="translate(-29.7 -42.7)"/><path class="cls-1" d="M436.3,328.9c0,.1.1.3.1.4" transform="translate(-29.7 -42.7)"/><path class="cls-1" d="M437.1,327.5a1.7,1.7,0,0,0-.8,1.4" transform="translate(-29.7 -42.7)"/><path class="cls-1" d="M433.6,328.2a1.3,1.3,0,0,0-1.4,1.2" transform="translate(-29.7 -42.7)"/><path class="cls-1" d="M433.6,328.2h0" transform="translate(-29.7 -42.7)"/><line class="cls-1" x1="412.2" y1="286.4" x2="409.7" y2="286.5"/><line class="cls-1" x1="402.5" y1="286.8" x2="401.3" y2="286.8"/><path class="cls-1" d="M222.2,331.5a14.3,14.3,0,0,0-21.9-12,8.3,8.3,0,0,0-5.9-2.4,7.5,7.5,0,0,0-2.6.5,17.3,17.3,0,0,0-32.7,7.9,12.3,12.3,0,0,0,.2,2.7,12.5,12.5,0,0,0,1.9,24.8h1.5a4.6,4.6,0,0,0,4.5,3.3,4.2,4.2,0,0,0,2.7-.9,21.1,21.1,0,0,0,36.5-3.2,5.9,5.9,0,0,0,5.6-5.8,5,5,0,0,0-.2-1.2A14.3,14.3,0,0,0,222.2,331.5Z" transform="translate(-29.7 -42.7)"/><path class="cls-1" d="M185.4,410.7v-30a3.4,3.4,0,0,0-2.2-3.3L168.1,371a4.1,4.1,0,0,1-2.5-3.2l-1.8-12.9" transform="translate(-29.7 -42.7)"/><path class="cls-1" d="M210.2,350.5,208.3,361a9,9,0,0,1-4.2,6.1l-11.7,7.2a5.1,5.1,0,0,0-2.3,4.3v11.8c0,.1.1.3.3.2l2.7-.9-.3,1-2.2,1.3a1.1,1.1,0,0,0-.5.9v18.2" transform="translate(-29.7 -42.7)"/><path class="cls-1" d="M181.8,363.7l1.4,3.1a5.3,5.3,0,0,1,.6,2.4v3.7a1.1,1.1,0,0,1-1.5,1L169.9,369a3.4,3.4,0,0,1-2.1-2.7l-.3-2.3a1.5,1.5,0,0,1,1.3-1.7l1.5-.3a3,3,0,0,0,1.5-.5l2.3-1.6" transform="translate(-29.7 -42.7)"/><path class="cls-1" d="M191.6,364l-3.2,2.4a3.3,3.3,0,0,0-1.2,2.4v3.6a.9.9,0,0,0,1.4.7l14.6-8.7a3.5,3.5,0,0,0,1.7-2.5l.4-2.7A1.9,1.9,0,0,0,204,357l-.5-.2" transform="translate(-29.7 -42.7)"/><path class="cls-1" d="M205.3,354.6l.2.4a1.5,1.5,0,0,0,1.8-.9l.7-2.2" transform="translate(-29.7 -42.7)"/><path class="cls-1" d="M166.1,356.2l.4,2.2a1.5,1.5,0,0,0,1.6,1.3l.8-.2a2.6,2.6,0,0,0,1.6-.9l1.1-1.1" transform="translate(-29.7 -42.7)"/><path class="cls-1" d="M185.1,364.4h0a1.2,1.2,0,0,0,1.6.7l1.5-.6" transform="translate(-29.7 -42.7)"/><path class="cls-1" d="M177.5,336.1a1.9,1.9,0,0,0-1.9,1.8" transform="translate(-29.7 -42.7)"/><path class="cls-1" d="M179.2,337.2a1.8,1.8,0,0,0-1.7-1.1" transform="translate(-29.7 -42.7)"/><path class="cls-1" d="M179.9,337a1,1,0,0,0-.7.2" transform="translate(-29.7 -42.7)"/><path class="cls-1" d="M181.5,338.5a1.6,1.6,0,0,0-1.6-1.5" transform="translate(-29.7 -42.7)"/><path class="cls-1" d="M181.5,338.9v-.4" transform="translate(-29.7 -42.7)"/><path class="cls-1" d="M178.4,338.5v.5" transform="translate(-29.7 -42.7)"/><path class="cls-1" d="M179.2,337.2a1.4,1.4,0,0,0-.8,1.3" transform="translate(-29.7 -42.7)"/><path class="cls-1" d="M175.6,337.9a1.2,1.2,0,0,0-1.3,1.2" transform="translate(-29.7 -42.7)"/><path class="cls-1" d="M175.6,337.9h0" transform="translate(-29.7 -42.7)"/><line class="cls-1" x1="154.2" y1="296.1" x2="151.7" y2="296.2"/><line class="cls-1" x1="144.5" y1="296.5" x2="143.4" y2="296.5"/><path class="cls-1" d="M198.5,326.4a1.9,1.9,0,0,0-1.9,1.8" transform="translate(-29.7 -42.7)"/><path class="cls-1" d="M200.2,327.5a2,2,0,0,0-1.7-1.1" transform="translate(-29.7 -42.7)"/><path class="cls-1" d="M201,327.3l-.8.2" transform="translate(-29.7 -42.7)"/><path class="cls-1" d="M202.5,328.9a1.6,1.6,0,0,0-1.5-1.6" transform="translate(-29.7 -42.7)"/><path class="cls-1" d="M202.5,329.2v-.3" transform="translate(-29.7 -42.7)"/><path class="cls-1" d="M199.4,328.9v.4" transform="translate(-29.7 -42.7)"/><path class="cls-1" d="M200.2,327.5a1.6,1.6,0,0,0-.8,1.4" transform="translate(-29.7 -42.7)"/><path class="cls-1" d="M196.6,328.2a1.3,1.3,0,0,0-1.3,1.3" transform="translate(-29.7 -42.7)"/><path class="cls-1" d="M196.6,328.2h0" transform="translate(-29.7 -42.7)"/><line class="cls-1" x1="175.2" y1="286.5" x2="172.8" y2="286.6"/><line class="cls-1" x1="165.5" y1="286.8" x2="164.4" y2="286.9"/><path class="cls-1" d="M365.5,54.5s5.3-2.6,7.9-1.9A5.6,5.6,0,0,1,377,56s4.4-2.2,6.7-.9a5.2,5.2,0,0,1,2.7,3.3" transform="translate(-29.7 -42.7)"/><path class="cls-1" d="M373.2,82.2s5.4-2.7,8-2a5.6,5.6,0,0,1,3.6,3.4s4.4-2.1,6.7-.9a5.2,5.2,0,0,1,2.7,3.4" transform="translate(-29.7 -42.7)"/><path class="cls-1" d="M418,66.5s5.3-2.7,8-1.9a5.5,5.5,0,0,1,3.5,3.3s4.5-2.1,6.8-.9a5.1,5.1,0,0,1,2.6,3.4" transform="translate(-29.7 -42.7)"/><path class="cls-1" d="M413,45.2s5.3-2.6,8-1.9a5.6,5.6,0,0,1,3.5,3.4s4.4-2.2,6.7-.9a5.2,5.2,0,0,1,2.7,3.3" transform="translate(-29.7 -42.7)"/><path class="cls-1" d="M29.8,502.2s10.4-.8,20-.8,7.5,1.4,13.9,1.9,10.1-4.3,15.4-3.7a13.8,13.8,0,0,1,8.3,3.7" transform="translate(-29.7 -42.7)"/><path class="cls-1" d="M530.9,503.3s6.4-2.7,12.8-1.9,5.9,3,13.3,1.9a53.3,53.3,0,0,1,13.1-.8,85,85,0,0,1,11.9,1.1" transform="translate(-29.7 -42.7)"/><path class="cls-1" d="M102.5,517.7s8.5-4.3,16.5-3.8,6.4,3.8,13.3,3.8,11.2-3.9,16.2-3.8a50.3,50.3,0,0,1,11.6,1.9" transform="translate(-29.7 -42.7)"/><path class="cls-1" d="M295.7,516.8c7.3-3.1,12.9-3.1,16.7-2.5,6.6,1,8.1,3.8,14.5,3.9s7.2-1.9,14.6-3.6a57.3,57.3,0,0,1,16.7-1" transform="translate(-29.7 -42.7)"/><path class="cls-1" d="M422.7,516.1c9,3.1,15,2.2,18.8.7s4.3-2.4,7.8-3.2a25.1,25.1,0,0,1,13.5,1" transform="translate(-29.7 -42.7)"/><path class="cls-1" d="M384.4,519.6c3.2,1.6,5.3,1.5,6.7,1.1s3.3-2.7,6.1-3.2a8.1,8.1,0,0,1,3.9.3" transform="translate(-29.7 -42.7)"/><path class="cls-1" d="M202,529.2c6.7,4.6,11.8,5.1,15.3,4.6,5.4-.7,8.1-4,16-5.7a38.5,38.5,0,0,1,9.5-.7" transform="translate(-29.7 -42.7)"/><path class="cls-1" d="M249.9,529.2c3.3.9,6.8,1.9,10.7,2.8a9.6,9.6,0,0,0,4.6.4,10.2,10.2,0,0,0,5-2.5" transform="translate(-29.7 -42.7)"/><path class="cls-1" d="M467.4,532.4c11.3,4.8,17.1,3.7,20.3,1.8,1.5-1,3.2-2.6,6.3-3.2s4.2,0,8.9.7,6,1.1,8.2.7a12.6,12.6,0,0,0,4.9-2.1" transform="translate(-29.7 -42.7)"/><path class="cls-1" d="M505,516.1c8-2.7,13.2-1.8,16.4-.4s4.6,3.6,8.8,4.3c1.2.2,2.7.3,10.3-.7l7.5-1.1" transform="translate(-29.7 -42.7)"/><path class="cls-1" d="M560.4,525.3a26.7,26.7,0,0,1,9.9-2.1,25.9,25.9,0,0,1,9.6,1.4" transform="translate(-29.7 -42.7)"/><path class="cls-1" d="M349.3,532.7a15.3,15.3,0,0,0,7.8,3.2c5,.6,7.7-2,13.5-2.8a25.9,25.9,0,0,1,11.7,1.1" transform="translate(-29.7 -42.7)"/><path class="cls-1" d="M416.3,534.5a16,16,0,0,0,8.9,1.1c2.6-.5,3.6-1.9,7.1-3.2a27,27,0,0,1,7.1-1.8" transform="translate(-29.7 -42.7)"/><path class="cls-1" d="M40.6,535.6a27.9,27.9,0,0,1,14.2-2.9c4.3.4,6.2,1.7,10.6,2.2a30.6,30.6,0,0,0,14.2-2.2" transform="translate(-29.7 -42.7)"/><path class="cls-1" d="M64.7,513.6a41.6,41.6,0,0,1,12.8-.7,37.8,37.8,0,0,1,9.9,2.1" transform="translate(-29.7 -42.7)"/><path class="cls-1" d="M125.8,532c3.4-2.2,8.7-4.8,14.9-4.2,3.9.4,5.6,1.8,9.9,2.8s9.4,1.4,17-.7" transform="translate(-29.7 -42.7)"/><path class="cls-1" d="M193.9,515a42.9,42.9,0,0,1,14.9,0c4.1.7,6.6,1.9,10.6,1.4a19.7,19.7,0,0,0,9.2-3.5" transform="translate(-29.7 -42.7)"/><path class="cls-1" d="M257.7,514.3l11.4,2.1" transform="translate(-29.7 -42.7)"/><path class="cls-1" d="M90.3,490.7s12.5,7.3,24.5,4.3,23-8.9,37.9-6.4,38.2,12.3,61.8,8.3,22.3-8,28.3-7.2,6.3,3.7,11.7,3.2,9.3-5.3,15.7-6.1,21,11.4,51.8,8.8,51.4-10.5,64.7-8.8,31.8,9.6,54.2,8,29.1-9.3,38.2-8.3,12.3,8,25.9,8.5,21.5-7.2,21.5-7.2" transform="translate(-29.7 -42.7)"/><path class="cls-1" d="M198.7,101.7a5.9,5.9,0,0,0-2.3.5A11.5,11.5,0,0,0,183.5,97a15.4,15.4,0,0,0-29.9-.3h-1.9a13.9,13.9,0,0,0-13,9h-.9a7.7,7.7,0,1,0,0,15.4,6.9,6.9,0,0,0,3.7-1,14,14,0,0,0,15.2,3.6,10.6,10.6,0,0,0,5.8,1.7,10.8,10.8,0,0,0,10.8-10,21.2,21.2,0,0,0,3.7-1.8,11.4,11.4,0,0,0,9.7,5.6,11.3,11.3,0,0,0,10.4-7.1l1.6.2a5.2,5.2,0,0,0,5.2-5.2A5.2,5.2,0,0,0,198.7,101.7Z" transform="translate(-29.7 -42.7)"/><path class="cls-1" d="M445.2,127.8h-.5a6.9,6.9,0,0,0-6.8-6l-1.3.2a12.5,12.5,0,0,0-9.3-4,13.4,13.4,0,0,0-8.7,3.3,5.1,5.1,0,0,0-2.7-.9,4.6,4.6,0,0,0-4,2.3,5.5,5.5,0,0,0-2.9-.9,5,5,0,0,0-4.1,2.2,5.3,5.3,0,0,0-3-.9,5.1,5.1,0,0,0-1.6,9.9h0a7.9,7.9,0,0,0,7.9,8,8.6,8.6,0,0,0,3.5-.9,7.7,7.7,0,0,0,4.4,1.4,7.5,7.5,0,0,0,2.6-.5,13,13,0,0,0,8.6,3.2,14.3,14.3,0,0,0,2.9-.3,8.6,8.6,0,0,0,5.8,2.3,8.8,8.8,0,0,0,8.8-8.8h.4a4.8,4.8,0,0,0,4.9-4.8A4.9,4.9,0,0,0,445.2,127.8Z" transform="translate(-29.7 -42.7)"/><path class="cls-1" d="M252.2,90.5h-.6a2.9,2.9,0,0,0,.2-.9,3.3,3.3,0,0,0-3.2-3.2,3.4,3.4,0,0,0-2.2.9,5.5,5.5,0,0,0-4.1-1.7,6.1,6.1,0,0,0-3,.8,3.8,3.8,0,0,0-2.4-.8,3.8,3.8,0,0,0-3.8,3,2.5,2.5,0,0,0-2.1,2.4,2.3,2.3,0,0,0,2.3,2.3,3,3,0,0,0,1.6-.5,3.9,3.9,0,0,0,2,.5h.3a5.5,5.5,0,0,0,10.5-.6h.9a4,4,0,0,0,1.5-.3h0a2.1,2.1,0,0,0,2.1,2.2,2.2,2.2,0,1,0,0-4.3Z" transform="translate(-29.7 -42.7)"/><path class="cls-1" d="M376.2,160.1H376a3.3,3.3,0,0,0-2.3-2.3v-.2a2.5,2.5,0,0,0-2.5-2.4h-.7a5.7,5.7,0,0,0-3.6-1.3,5.8,5.8,0,0,0-5.1,3,2.9,2.9,0,0,0-2.2-1,2.9,2.9,0,0,0,0,5.8h.1a2.4,2.4,0,0,0,2.3,1.9h.4a5.8,5.8,0,0,0,4.5,2.2,5.6,5.6,0,0,0,4.4-2.1,2.9,2.9,0,0,0,1.6.4,3.5,3.5,0,0,0,2.2-.8,2.1,2.1,0,0,0,1.1.4,1.8,1.8,0,0,0,0-3.6Z" transform="translate(-29.7 -42.7)"/></svg>