<svg xmlns="http://www.w3.org/2000/svg" width="2410" height="790.007" viewBox="0 0 2410 790.007">
  <g id="Group_6" data-name="Group 6" transform="translate(18 -393)">
    <g id="Group_5" data-name="Group 5" transform="translate(-18 393)">
      <path id="Path_1" data-name="Path 1" d="M268.452,342.27c3.608,5.488,11.453,18.033,11.453,20.739l-102.945.806c0-1.711,48.3-23.939,48.3-23.939h5.976V327.216c8.383,0,18.91-.787,28.017-.864,1.939,0,9.332.651,11,.612v12.913h3.064s55.158,22.227,55.158,23.939l-47.766-.8C280.714,360.306,272.06,347.758,268.452,342.27Z" transform="translate(495.135 183.752)" fill="#c3d5ec"/>
      <path id="Path_2" data-name="Path 2" d="M286.221,349.4c-.541,0-1.082,0-1.648.021-5.183.039-10.843.079-16.633.116-2.413.021-4.848.021-7.28.039-3.946.021-7.867.039-11.679.039-4.912.018-9.624.018-13.885,0-2,0-3.9-.005-5.681-.013,17.25.278,53.143.848,53.143.848l.24,14.11-58.733-1.173V349.56c-3.216-.06-5.718-.118-7.292-.215a1.332,1.332,0,0,1-.271-.018c-.295-.021-.541-.039-.745-.058a1.168,1.168,0,0,1-.292-.021c-.158-.018-.271-.039-.362-.058-3.967-1.031-22.181-6.832-22.181-8.564H295.918C295.918,343.642,288.228,348.313,286.221,349.4Z" transform="translate(479.171 206.941)" fill="#c3d5ec"/>
      <path id="Path_3" data-name="Path 3" d="M247.936,323.273c2.5,3.929,7.493,12.989,7.493,14.991l-70.831.85c0-1.265,33.519-17.458,33.519-17.458h2.48v-6.493c6.514.058,15.73-.512,23.08-.609.541,0,4.374.394,5.611.394v6.708h2.164s38.23,16.193,38.23,17.458l-33.135-.85C256.548,336.259,250.441,327.2,247.936,323.273Z" transform="translate(510.714 164.586)" fill="#c3d5ec"/>
      <path id="Path_4" data-name="Path 4" d="M199.994,330.14c-2.751-.758-15.4-4.984-15.4-6.228h70.831a1.254,1.254,0,0,1-.067.407,1.5,1.5,0,0,1-.158.391,11.6,11.6,0,0,1-4.043,4.456c1.894-1.186,4.441-3,5.161-4.456a1.5,1.5,0,0,0,.158-.391,1.254,1.254,0,0,0,.067-.407h33.135c0,1.244-12.828,6.538-12.828,6.538l-11.788-.31s-1.036,0-2.839.037c-.924,0-2.031.021-3.313.021-1.265.018-2.684.018-4.237.018-1.669.039-3.5.06-5.389.06-1.778.039-3.672.039-5.611.039-9.107.076-19.633.155-28.017.155C207.183,330.471,200.827,330.353,199.994,330.14Z" transform="translate(510.714 179.788)" fill="#c3d5ec"/>
      <path id="Path_5" data-name="Path 5" d="M197.891,323.539c0-1.344,22.406-18.781,22.406-18.781h19.25s5.6,15.194,5.6,17.878Z" transform="translate(514.844 148.672)" fill="#c3d5ec"/>
      <path id="Path_6" data-name="Path 6" d="M190.33,304.758h3.021s25.561,17.438,25.561,18.781l-22.135-.9C196.777,319.954,190.33,304.758,190.33,304.758Z" transform="translate(564.061 148.672)" fill="#c3d5ec"/>
      <path id="Path_7" data-name="Path 7" d="M208.906,318.977c-4.532,0-7.8-.116-8.274-.331-1.848-.816-10.3-5.37-10.3-6.732h47.255a7.114,7.114,0,0,1-1.724,4.593c1.265-1.441,2.572-3.231,2.572-4.593h22.135c0,1.362-8.545,7.084-8.545,7.084l-7.888-.352s-2.614.06-6.538.118c-1.237,0-2.569.018-4.013.039-.517,0-1.058.039-1.6.039C224.636,318.94,215.42,319.037,208.906,318.977Z" transform="translate(522.406 160.297)" fill="#c3d5ec"/>
      <path id="Path_8" data-name="Path 8" d="M220.142,349.618l-17.016-.428-1.742.024v14.3l-24.424,1.052.21-14.11s17.557-1.016,23.029-1.226c-1.079.013-2.426.026-4.015.042-1.286.018-2.727.037-4.283.037-.79.021-1.6.021-2.435.021-.945,0-1.939.018-2.976.018-1.915.021-3.967.039-6.107.058,2.006-1.089,10.457-5.761,10.457-8.776H238.6C238.6,342.358,220.142,349.618,220.142,349.618Z" transform="translate(585.009 206.941)" fill="#c3d5ec"/>
      <path id="Path_9" data-name="Path 9" d="M200.556,304.584a2.678,2.678,0,0,1,2.863-2.451h4.575a2.678,2.678,0,0,1,2.864,2.451v3.835h-10.3Z" transform="translate(541.032 144.407)" fill="#c3d5ec"/>
      <path id="Path_10" data-name="Path 10" d="M275.961,338.011s-56.24-22.227-60.566-25.983C222.11,311,318.72,320.9,388.8,315.4c21.01-1.635,70.618-16.718,77.336-16.718L467.61,320.7l1.474-22.023c6.718,0,56.329,15.083,77.336,16.718,70.077,5.509,166.687-4.4,173.405-3.367-4.328,3.756-60.569,25.983-60.569,25.983L467.61,320.9Z" transform="translate(-13.042 138.793)" fill="#c3d5ec"/>
      <path id="Path_11" data-name="Path 11" d="M334.975,231.536c8.5-.664,28.251-6.669,30.978-6.669l.927,8.758.924-8.758c2.727,0,22.482,6,30.978,6.669,28.312,2.218,67.329-1.772,70.192-1.362a.52.52,0,0,1-.2.155,5.857,5.857,0,0,1-.787.446c-.34.176-.723.37-1.173.585-1.6.759-3.854,1.751-6.335,2.8-2.14.895-4.441,1.848-6.6,2.743-.723.291-1.423.585-2.1.856-.7.273-1.353.546-1.985.8-.608.255-1.195.488-1.736.7-.271.1-.541.215-.766.312-.991.388-1.781.7-2.252.895-.362.136-.565.215-.565.215l-77.591-6.929-77.594,6.929s-.2-.079-.565-.215c-.471-.194-1.261-.507-2.252-.895-.225-.1-.5-.213-.766-.312-.541-.213-1.128-.446-1.736-.7-.632-.252-1.286-.525-1.985-.8-.675-.27-1.374-.564-2.094-.856-2.164-.895-4.465-1.848-6.605-2.743-2.48-1.052-4.733-2.044-6.335-2.8-.45-.215-.833-.409-1.173-.585a5.846,5.846,0,0,1-.787-.446.521.521,0,0,1-.2-.155C267.645,229.764,306.663,233.754,334.975,231.536Z" transform="translate(87.69 18.885)" fill="#c3d5ec"/>
      <path id="Path_12" data-name="Path 12" d="M317.852,165.765c4.508-.37,14.472-3.441,15.913-3.441l1.049,4.548,1.046-4.548c1.441,0,11.4,3.071,15.913,3.441,15.1,1.168,35.908-.953,37.349-.74-.924.819-13.049,5.606-13.049,5.606l-41.258-3.7-41.261,3.7s-12.125-4.787-13.049-5.606C281.944,164.812,302.751,166.933,317.852,165.765Z" transform="translate(119.755 -82.719)" fill="#c3d5ec"/>
      <path id="Path_13" data-name="Path 13" d="M311.653,323.9l11.879-7.26,11.879,6.617v48.189l-23.758.643Zm.969,46.594,21.819-.6V324.461l-10.91-6.228-10.91,6.85Z" transform="translate(78.778 167.97)" fill="#c3d5ec"/>
      <path id="Path_14" data-name="Path 14" d="M330.025,324.262v36.025l-17.311.488V324.729l8.657-5.43Zm-15.779,34.177,14.247-.428V326.034l-7.122-4.4-7.125,4.827Z" transform="translate(80.939 172.294)" fill="#c3d5ec"/>
      <path id="Path_15" data-name="Path 15" d="M608.819,445.15h1.869V428.043l8.408-.643.024-9.614.021-10.847L581.763,404.2l-37.382,2.735.021,10.847.024,9.614,8.408.643V445.15h1.87V447.8L159.431,433.279V417.786H435.262V333.57l5.161-.008v84.224h34.689v-36.92c1.036,0,2.322.877,3.675,2.218,3.876,3.855,8.341,11.464,8.949,12.477-.562-1.15-5.049-10.414-8.949-14.285V332.368l-38.364-.194-5.161-.021-19.837-.1-20.758,1.79v6.677h-4.553V323.085l191.634-15.217v0h.027v0l191.634,15.217v17.438h-4.553v-6.677l-20.758-1.79-19.837.1-5.161.021-38.364.194v48.909c-3.9,3.871-8.383,13.136-8.949,14.285.608-1.013,5.073-8.622,8.949-12.477,1.353-1.341,2.639-2.218,3.675-2.218v36.92H723.1V333.562l5.161.008v84.217h275.831v15.493L608.819,447.8Zm75.916-118.564-98.884-8.5v8.291l-4.076,1.354v.008l-.012-.005-.015.005v-.008l-4.076-1.354v-8.291l-98.884,8.5,96.9-5.955v7.338l6.073,2.31,6.07-2.31v-7.338Zm-170.806,8.506v55.388l31.151-.74V334.352L529.5,326.743Zm104.514-.74V389.74l31.151.74V335.092l-15.575-8.349Zm-21.907,57.005s-8.371-8.564-13.141-9.692l-1.632-51.118-1.657,51.118c-4.769,1.128-13.116,9.692-13.116,9.692l-79.208,4.32,79.208-1.829s10.259-10.446,14.758-10.485v-.005l.015,0,.012,0v.005c4.5.039,14.761,10.485,14.761,10.485l79.205,1.829Z" transform="translate(-127.194 153.719)" fill="#c3d5ec"/>
      <path id="Path_16" data-name="Path 16" d="M307.1,156.609l-1.891.194s-20-7.687-20-8.74c0,0,35.859-5.861,38.656-5.861l1.319,12.582,1.319-12.582c2.793,0,38.653,5.861,38.653,5.861,0,1.052-19.992,8.74-19.992,8.74l-1.894-.194-18.086-1.693Z" transform="translate(129.375 -115.406)" fill="#c3d5ec"/>
      <path id="Path_17" data-name="Path 17" d="M297.271,141.315l-1.106-5.9s3.52-3.4,6.69-3.42v-.005l.015,0,.012,0V132c3.171.018,6.69,3.42,6.69,3.42l-1.1,5.9c-2.827-1.625-4.848-3.525-5.6-3.543C302.115,137.791,300.094,139.691,297.271,141.315Z" transform="translate(151.699 -131.993)" fill="#c3d5ec"/>
      <path id="Path_18" data-name="Path 18" d="M702.543,374.834,308.872,358.895l393.672,16.99v17.477h-1.781v15.492l-8.814.642v1.362L639.542,409.5l-330.941-8.6,293.658,8.6,89.689,2.628v2.9L529.386,409.5l-222.115-7.551V355.917l395.272,16.446Z" transform="translate(-275.035 231.781)" fill="#c3d5ec"/>
      <path id="Path_19" data-name="Path 19" d="M695.434,389.063v11.716L440.365,389.763l-129.608-5.586V373.454l186.095,7.551Z" transform="translate(-278.521 260.272)" fill="#c3d5ec"/>
      <path id="Path_20" data-name="Path 20" d="M323,376.331l27.95.74,8.724.234v19.131L323,397.74h-.022l-36.674-1.3V377.3l8.723-.234,27.95-.74Z" transform="translate(131.582 264.946)" fill="#c3d5ec"/>
      <path id="Path_21" data-name="Path 21" d="M309.779,358.57l3.742,5.955,2.218.1,2.218-.1,3.742-5.955,17.74-.6,2.186,3.6v30.781l-2.186,3.6-17.74-.6-3.742-5.955-1.341-.059L315.739,365l-.877,24.331-1.341.059-3.742,5.955-17.739.6-2.186-3.6V361.567l2.186-3.6Z" transform="translate(138.828 235.113)" fill="#c3d5ec"/>
      <path id="Path_27" data-name="Path 27" d="M546.481,364.666c-21.007-1.635-70.794-16.718-77.509-16.718l-1.3-49.2-1.3,49.2c-6.715,0-56.5,15.083-77.509,16.718-70.077,5.506-166.688-2.483-173.4-1.451-3.991-3.443,126.047-48.265,152.665-55.719v-8.084l96.55-10.094-88.1,7.6-3.328.273-5.131.438-21,1.832v4.3h-2.946V292.527h0l-.024-.018c-.292-.1-2.751-1.089-6.335-2.53-.675-.273-1.4-.564-2.14-.856q-1.117-.468-2.3-.934c-.541-.215-1.082-.43-1.647-.664-.541-.234-1.1-.467-1.669-.68-.292-.118-.562-.234-.854-.352-.587-.234-1.149-.486-1.736-.719-9.9-4.047-20.761-8.679-22.318-10,4.487-.643,66.654,5.721,111.736,2.16,13.545-1.052,45.453-10.763,49.781-10.763l1.012,14.133,1.009-14.133c4.328,0,36.236,9.711,49.781,10.763,45.082,3.562,107.249-2.8,111.736-2.16-1.556,1.323-12.42,5.955-22.317,10-.584.234-1.149.486-1.736.719-.292.118-.562.234-.854.352-.566.213-1.128.446-1.669.68-.566.234-1.1.449-1.645.664q-1.186.465-2.3.934c-.745.291-1.465.583-2.14.856-3.584,1.441-6.043,2.433-6.335,2.53l-.021.018h0v11.228h-2.946v-4.3l-21-1.832-5.131-.438-3.326-.273-88.1-7.6,96.55,10.094V307.5c26.622,7.454,156.656,52.276,152.668,55.719C713.168,362.183,616.558,370.172,546.481,364.666Zm43.589-72.238-122.4-10.934-122.4,10.934,122.393-9.191v0l.009,0,.006,0v0Zm-122.393,3.086v.008l-.006,0-.009,0v-.008l-2.614-.869v-5.362h0v5.367l2.626,1.47,2.623-1.47v-5.367h0v5.362Zm35.209,18.115c-11.463-1.01-31.224-16.375-35.215-16.4-3.994.029-23.755,15.393-35.218,16.4-11.5,1.052-53.468-7.186-59.8-7.186,6.332,0,48.3,9.246,59.8,8.194,11.451-1.01,31.184-16.346,35.2-16.4v-.005l.015,0,.012,0v.005c4.019.055,23.752,15.39,35.2,16.4,11.5,1.052,53.468-8.194,59.8-8.194C556.354,306.443,514.382,314.681,502.886,313.629Z" transform="translate(-13.102 87.607)" fill="#c3d5ec"/>
      <path id="Path_28" data-name="Path 28" d="M458.394,307.167c-13.548-1.053-45.577-10.763-49.906-10.763l-1.018-31.531L406.449,296.4c-4.329,0-36.358,9.711-49.9,10.763-45.082,3.561-107.119-1.475-111.605-.832-2.544-2.181,77.135-29.7,96.994-35.5V259.972l63.42-7.157v-.008l-63.42,5.443-7.888.682-2.693.22-21.065,1.832v3.475h-2.377v-9.055l99.55-7.047v0h.015v0l99.55,7.047v9.055h-2.377v-3.475l-21.065-1.832-2.693-.22L473,258.251l-63.42-5.443v.008L473,259.972v10.863c19.858,5.8,99.541,33.319,96.993,35.5C565.51,305.692,503.473,310.728,458.394,307.167Zm-50.918-49.36v.005l-.006,0-.009,0v-.005l-2.07-.693,2.079,1.409,2.076-1.409Zm22.7,15.957c-7.4-.622-20.114-10.538-22.707-10.566-2.6.029-15.3,9.944-22.709,10.566-7.414.682-34.464-4.018-38.522-4.018,4.058,0,31.108,5.955,38.522,5.273,7.4-.619,20.074-10.506,22.694-10.561v-.005l.015,0,.012,0v.005c2.62.055,15.3,9.942,22.694,10.561,7.414.682,34.464-5.273,38.522-5.273C464.641,269.746,437.591,274.447,430.177,273.764Z" transform="translate(47.099 57.044)" fill="#c3d5ec"/>
      <path id="Path_29" data-name="Path 29" d="M427.258,267.247c-10.909-.856-36.4-8.679-39.893-8.679l-1.049-25.2-1.049,25.2c-3.5,0-28.986,7.824-39.9,8.679-36.4,2.861-86.577-.989-90.072-.465-2.277-1.945,78.375-29.484,81.664-29.484a28.805,28.805,0,0,1,3.426.407c7.213,1.15,22.746,4.3,27.613,3.855,5.955-.543,16.177-8.464,18.3-8.519v-.005l.015,0,.012,0v.005c2.125.055,12.347,7.976,18.3,8.519,4.87.446,20.4-2.706,27.613-3.855a28.866,28.866,0,0,1,3.426-.407c3.289,0,83.941,27.539,81.664,29.484C513.838,266.258,463.661,270.108,427.258,267.247Z" transform="translate(68.252 32.156)" fill="#c3d5ec"/>
      <path id="Path_30" data-name="Path 30" d="M386.285,254.8l-99.55,8.892s-29.211-11.558-31.467-13.506c3.5-.525,53.669,4.614,90.072,1.751,10.909-.856,36.528-8.679,40.024-8.679l.921,11.372.918-11.372c3.5,0,29.114,7.824,40.024,8.679,36.4,2.863,86.579-2.276,90.072-1.751-2.255,1.947-31.467,13.506-31.467,13.506Z" transform="translate(68.284 48.756)" fill="#c3d5ec"/>
      <path id="Path_31" data-name="Path 31" d="M469.013,255.73c-2.864-.409-41.151,2.485-69.463.268-8.5-.661-29.19-6.774-31.917-6.774l-.714-19.456-.718,19.456c-2.727,0-23.418,6.113-31.917,6.774-28.312,2.218-66.6-.677-69.463-.268a.021.021,0,0,1-.021-.021c-1.556-1.323,45.936-17.768,59.891-21.973v-7.42l40.774-4.918v2.937l0,0V221.39l-40.771,3.5-8.268.711-1.869.165-14.475,1.257v2.38h-1.648v-6.217h-.006c-.024-.018-.024-.018-.045-.018-.225-.1-1.128-.449-2.435-.995-.654-.252-1.4-.543-2.21-.874l-.021-.021c-.453-.176-.948-.37-1.444-.564-.179-.079-.383-.155-.587-.234-.5-.215-1.037-.428-1.553-.643-5.727-2.354-12.466-5.2-13.344-5.934,2.41-.37,36.944,3.152,61.964,1.186,7.5-.583,24.892-5.955,27.305-5.955l.857,7.8.854-7.8c2.414,0,19.8,5.372,27.306,5.955,25.02,1.966,59.553-1.556,61.964-1.186-.879.737-7.617,3.58-13.344,5.934-.517.215-1.058.428-1.553.643-.2.079-.407.155-.586.234-.5.194-.991.388-1.444.564l-.021.021c-.812.331-1.556.622-2.21.874-1.307.546-2.207.895-2.435.995-.021,0-.021,0-.043.018H435.4v6.217h-1.645v-2.38l-14.478-1.257-1.87-.165-8.268-.711-40.771-3.5v2.947l0,0V221.4l40.778,4.918v7.42c13.952,4.2,61.444,20.65,59.888,21.973A.021.021,0,0,1,469.013,255.73Zm-35.191-32.681-34.348-3.073-32.555-2.918-32.558,2.918-34.348,3.073,66.9-5.126h.015Zm-66.9,1.785-.009,0v-.005l-1.426-.48,1.435,1.1,1.431-1.1-1.425.48v.005ZM381.172,235.4c-4.633-.409-12.606-6.627-14.253-6.656-1.651.029-9.624,6.246-14.256,6.656S331,232.744,328.43,232.744c2.572,0,19.588,3.716,24.232,3.307,4.624-.407,12.569-6.6,14.241-6.651v-.005l.015,0,.012,0v.005c1.672.055,9.617,6.244,14.241,6.651,4.645.409,21.661-3.307,24.232-3.307C402.833,232.744,385.816,235.8,381.172,235.4Z" transform="translate(87.65 -6.671)" fill="#c3d5ec"/>
      <path id="Path_32" data-name="Path 32" d="M387.946,235.341c-7.5-.585-25.764-5.955-28.175-5.955l-.9-17.107-.906,17.107c-2.41,0-20.667,5.37-28.175,5.955-25.019,1.966-58.635-.451-61.046-.081-1.444-1.265,47.176-18,55.155-20.086v-4.543l33.677-3.96v2.588l0,0v-2.593l-33.674,2.9-9.535.819-1.647.139-12.767,1.092v2.108h-1.426v-5.48h-.009s-3.383-1.341-7.3-2.958c-1.4-.564-2.885-1.168-4.3-1.772-.566-.234-1.107-.467-1.648-.7h-.021c-1.061-.446-2.052-.895-2.909-1.283-.429-.176-.812-.37-1.17-.546h-.024c-.5-.234-.924-.467-1.24-.64h-.021c-.2-.136-.337-.215-.429-.294,2.119-.331,32.549,2.785,54.617,1.052,6.6-.507,21.624-5.113,23.743-5.113l1.061,6.756,1.058-6.756c2.119,0,17.141,4.606,23.743,5.113,22.068,1.732,52.5-1.383,54.617-1.052-.091.079-.225.158-.428.294h-.021c-.316.173-.745.407-1.24.64h-.024c-.359.176-.742.37-1.17.546-.857.388-1.848.837-2.909,1.283h-.021c-.541.234-1.082.467-1.647.7-1.42.6-2.906,1.207-4.3,1.772-3.921,1.617-7.3,2.958-7.3,2.958h-.012v5.48H417.78v-2.108l-12.767-1.092-1.648-.139-9.536-.819-33.674-2.9v2.593l0,0V206.67l33.677,3.96v4.543c7.979,2.081,56.6,18.821,55.155,20.086C446.581,234.889,412.965,237.307,387.946,235.341Zm30.382-27.175-59.459-5.33-59.462,5.33L358.859,204h.015ZM358.868,209.7l-.009,0V209.7l-1.271-.428,1.28,1.126,1.276-1.126-1.271.428v.005Zm12.563,7.336c-4.07-.349-11.119-5.827-12.563-5.855-1.447.029-8.5,5.506-12.566,5.855-4.125.388-19.114-2.079-21.39-2.079,2.277,0,17.266,3.31,21.39,2.921,4.061-.349,11.083-5.8,12.551-5.853v-.005l.015,0,.012,0v.005c1.471.055,8.493,5.5,12.551,5.853,4.125.388,19.114-2.921,21.39-2.921C390.545,214.959,375.556,217.426,371.431,217.037Z" transform="translate(95.701 -28.025)" fill="#c3d5ec"/>
      <path id="Path_33" data-name="Path 33" d="M377.212,216.134c-6.605-.5-22.327-5.223-24.445-5.223l-1.085-15-1.088,15c-2.119,0-17.84,4.719-24.445,5.223-22.068,1.732-51.769-.291-53.888.039-1.195-1.05,36-13.934,46.7-17.146v-6.574l31.552-3.74v0l-31.552,2.706-7.35.63-1.456.136-11.5.987v1.887h-1.3v-4.924l54.313-4.065h.015L406,190.132v4.924h-1.3v-1.887l-11.5-.987-1.459-.136-7.35-.63-31.552-2.706v0l31.552,3.74v6.574c10.709,3.212,47.9,16.1,46.7,17.146C428.981,215.843,399.281,217.866,377.212,216.134Zm-24.372-25.07-1.152.375v.005l-.006,0-.009,0v-.005l-1.152-.375v0l1.161,1.63,1.158-1.63Zm9.916,9.322c-3.6-.331-9.809-5.126-11.074-5.155-1.267.029-7.48,4.824-11.076,5.155-3.654.331-16.861-2.1-18.846-2.1,1.985,0,15.192,2.918,18.846,2.588,3.584-.331,9.772-5.1,11.062-5.152v-.005l.015,0,.012,0v.005c1.289.055,7.478,4.821,11.062,5.152,3.654.331,16.861-2.588,18.846-2.588C379.617,198.29,366.409,200.717,362.755,200.387Z" transform="translate(102.887 -44.147)" fill="#c3d5ec"/>
      <path id="Path_34" data-name="Path 34" d="M369.621,204.989c-5.973-.467-20.445-4.748-22.36-4.748l-.9-13.49-.906,13.49c-1.915,0-16.387,4.281-22.36,4.748-19.7,1.538-45.92-.281-48.2-.029l-.024-.021c-1.17-.971,36.087-13.779,43.37-15.8v-5.742l27.175-3.247v-.008l-27.181,2.354-4.4.381-1.2.084-9.313.819v1.533h-1.076v-4.016h0c-.653-.273-12.961-5.139-13.931-5.976,1.556-.234,23.78,2.045,39.92.78,4.824-.388,15.527-3.7,17.08-3.7l1.052,4.9,1.049-4.9c1.556,0,12.259,3.31,17.08,3.7,16.141,1.265,38.367-1.013,39.92-.78-.97.837-13.274,5.7-13.931,5.976h0v4.016H389.4v-1.533l-9.313-.819-1.2-.084-4.4-.381L347.3,180.14v.008l27.175,3.247v5.742c7.283,2.024,44.541,14.831,43.37,15.8l-.024.021C415.541,204.708,389.321,206.527,369.621,204.989Zm20.533-23.721-43.8-3.905-43.8,3.905,43.787-3h.016Zm-43.8,1.113-.01,0v-.005l-.918-.318.927,1.134.924-1.134-.918.318v.005Zm9.97,8.359c-3.213-.31-8.845-4.622-9.97-4.645-1.128.024-6.76,4.336-9.973,4.645-3.268.294-15.171-1.877-16.974-1.877,1.8,0,13.706,2.63,16.974,2.336,3.207-.31,8.812-4.6,9.958-4.643v-.008l.015,0,.012,0v.008c1.146.047,6.751,4.333,9.958,4.643,3.268.294,15.171-2.336,16.974-2.336C371.5,188.864,359.6,191.034,356.328,190.74Z" transform="translate(108.211 -66.35)" fill="#c3d5ec"/>
      <path id="Path_35" data-name="Path 35" d="M415.245,188.4c-.179.1-.383.176-.587.273-.429.176-.879.37-1.328.583-.7.294-1.423.6-2.188.934h-.021c-.52.215-1.015.43-1.532.643-4.4,1.829-8.9,3.6-8.9,3.6l-54.332-4.845-54.334,4.845s-4.508-1.772-8.9-3.6c-.516-.213-1.012-.428-1.532-.643h-.021c-.766-.331-1.49-.64-2.188-.934-.45-.213-.9-.407-1.328-.583-.2-.1-.407-.176-.587-.273a16.583,16.583,0,0,1-2.614-1.323h.045c2.277-.252,29.415,2.491,49.115.953,5.973-.467,19.469-4.619,21.387-4.619l.96,6.092.96-6.092c1.915,0,15.411,4.152,21.385,4.619,19.7,1.538,46.838-1.2,49.115-.953h.045A16.583,16.583,0,0,1,415.245,188.4Z" transform="translate(108.215 -48.465)" fill="#c3d5ec"/>
      <path id="Path_36" data-name="Path 36" d="M356.2,187.917c-4.824-.391-16.378-3.837-17.934-3.837l-.924-10.616-.927,10.616c-1.556,0-13.11,3.446-17.934,3.837-16.141,1.265-37.634.1-39.191.336-.833-.74,25-9.711,33.519-12.32V168.9l23.618-2.79-23.627,2.021-5.894.52-1.11.108-8.742.74v1.449h-.982V167.2l41.261-2.758v0l.009,0,.006,0v0L378.6,167.2v3.748h-.982V169.5l-8.742-.74-1.109-.108-5.891-.52-23.631-2.021,23.618,2.79v7.034c8.52,2.609,34.355,11.58,33.519,12.32C393.833,188.02,372.336,189.182,356.2,187.917Zm-17.971-21.81h-.009v1.8l-.872.27v.005l-.006,0-.009,0v-.005l-.872-.27v-1.8h-.009v1.808l.891.968.887-.968Zm7.213,10.459c-2.629-.252-7.158-3.748-8.1-3.771-.946.024-5.475,3.52-8.1,3.771-2.663.234-12.287-1.37-13.773-1.37,1.487,0,11.11,2.121,13.773,1.887,2.617-.252,7.122-3.722,8.085-3.769v-.008l.015.005.012-.005v.008c.963.047,5.468,3.517,8.088,3.769,2.66.234,12.283-1.887,13.77-1.887C357.721,175.2,348.1,176.8,345.438,176.566Z" transform="translate(117.231 -79.285)" fill="#c3d5ec"/>
      <path id="Path_37" data-name="Path 37" d="M352.624,179.988c-4.511-.37-15.217-3.572-16.658-3.572l-1.125-9.939-1.125,9.939c-1.444,0-12.15,3.2-16.657,3.572-15.1,1.168-35.087.15-36.528.362h-.024c-.809-.74,25.448-9.79,32.3-11.813v-6.574l21.1-2.3L312.8,161.48l-5.767.493-1.012.081-7.985.682v1.315h-.885v-3.417h-.009s-11.046-4.378-11.9-5.118c1.307-.213,20.33,1.753,34.1.661,4.125-.331,13.217-3.289,14.545-3.289l.951,4.317.948-4.317c1.332,0,10.42,2.958,14.545,3.289,13.773,1.092,32.8-.874,34.1-.661-.854.74-11.9,5.118-11.9,5.118h-.006v3.417h-.887v-1.315l-7.982-.682-1.015-.081-5.767-.493-21.114-1.821,21.1,2.3v6.574c6.854,2.024,33.114,11.073,32.3,11.813h-.024C387.708,180.138,367.725,181.156,352.624,179.988Zm19.791-19.364-37.573-3.354-37.577,3.354,37.567-2.4h.015Zm-37.573.908-.009,0v-.005l-.763-.265.772,1.234.769-1.234-.763.265v.005Zm7.56,7.976c-2.426-.213-6.684-3.514-7.56-3.538-.879.024-5.137,3.325-7.563,3.538-2.5.215-11.539-1.381-12.891-1.381,1.353,0,10.39,1.987,12.891,1.772,2.419-.213,6.651-3.488,7.548-3.533v-.01l.015.005.012-.005v.01c.9.045,5.128,3.32,7.548,3.533,2.5.215,11.539-1.772,12.891-1.772C353.94,168.128,344.9,169.724,342.4,169.509Z" transform="translate(119.727 -98.045)" fill="#c3d5ec"/>
      <path id="Path_38" data-name="Path 38" d="M347.981,161.3c-4.125-.331-14.18-3.289-15.509-3.289l-.808-8.837-.812,8.837c-1.328,0-11.381,2.958-15.505,3.289-13.773,1.089-31.975.281-33.282.493-.857-.74,29.686-11.152,30.926-11.152.112,0,.337.021.583.039,2.277.31,9.131,1.732,11.159,1.575,2.237-.231,6.085-3.176,6.915-3.22v-.008l.016,0,.012,0v.008c.83.045,4.678,2.989,6.915,3.22,2.028.157,8.882-1.265,11.159-1.575.246-.018.471-.039.584-.039,1.24,0,31.783,10.412,30.926,11.152C379.952,161.58,361.75,162.389,347.981,161.3Z" transform="translate(122.905 -104.32)" fill="#c3d5ec"/>
      <path id="Path_39" data-name="Path 39" d="M277.27,323.254l11.879-6.617,11.879,7.26v48.189l-23.758-.643Zm.97,46.633,21.819.6V325.083l-10.909-6.85-10.909,6.228Z" transform="translate(217.675 167.97)" fill="#c3d5ec"/>
      <path id="Path_40" data-name="Path 40" d="M295.641,324.729v36.046l-17.311-.488V324.262l8.654-4.963Zm-15.779,33.282,14.247.428V326.461l-7.125-4.827-7.122,4.4Z" transform="translate(219.84 172.294)" fill="#c3d5ec"/>
      <path id="Path_41" data-name="Path 41" d="M325.194,134.721,323.835,153c-2.8,0-38.616,7.522-38.616,7.522,0-.816,23.217-16.892,34.376-23.335,2.815-1.619,4.824-2.622,5.584-2.64v-.005l.015,0,.012,0v.005c.76.018,2.769,1.021,5.587,2.64,11.156,6.443,34.373,22.519,34.373,23.335,0,0-35.82-7.522-38.613-7.522Z" transform="translate(129.375 -127.86)" fill="#c3d5ec"/>
      <path id="Path_42" data-name="Path 42" d="M368.756,247.51c-5.964-.543-16.214-8.493-18.311-8.522-2.1.029-12.35,7.979-18.314,8.522-4.866.449-20.4-1.921-27.613-3.071V237.1l44.285-4.96v-.008l-44.285,3.8-11.311.984-2.088.165L274.708,238.5v2.709h-1.869v-7.057l77.6-5.265h.015l77.6,5.265v7.057h-1.87V238.5l-16.408-1.422-2.092-.165-11.311-.984-44.285-3.8v.008l44.285,4.96v7.338C389.156,245.588,373.626,247.958,368.756,247.51Zm-18.3-11.472v.005l-.006,0-.009,0v-.005l-1.617-.564,1.626,1.352,1.626-1.352Z" transform="translate(104.123 25.422)" fill="#c3d5ec"/>
      <path id="Path_43" data-name="Path 43" d="M317.436,154.353c-2.246-.231-6.119-3.2-6.927-3.226-.812.024-4.684,2.995-6.931,3.226-2.027.158-8.882-.892-11.158-1.2v-5.157l18.074-.486v0l.015,0,.012,0v0l18.074.486v5.157C326.318,153.461,319.463,154.511,317.436,154.353Z" transform="translate(144.06 -106.791)" fill="#c3d5ec"/>
      <path id="Path_44" data-name="Path 44" d="M170.025,415.023v-2.9l89.689-2.628,293.659-8.6-330.941,8.6-52.407,1.362V409.5l-8.814-.642V393.362H159.43V375.885L553.1,358.895,159.43,374.834v-2.472L554.7,355.917v46.028L332.587,409.5Z" transform="translate(322.197 231.781)" fill="#c3d5ec"/>
      <path id="Path_45" data-name="Path 45" d="M322.984,345.254H323l36.669.972v19.131l-8.723.311L323,366.661h-.027l-27.945-.992-8.723-.311V346.227l36.669-.972h.014Z" transform="translate(131.583 214.458)" fill="#c3d5ec"/>
      <path id="Path_46" data-name="Path 46" d="M343.016,368.393l-2.186-3.6-17.74.6-3.741,5.955-2.2.1h-.027l-2.2-.1-3.742-5.955-17.739-.6-2.187,3.6-1.195,1.966-.879-.039V353.232l27.224.966.735,16.936.735-16.936,27.225-.966V370.32l-.879.039Z" transform="translate(137.436 227.421)" fill="#c3d5ec"/>
      <path id="Path_47" data-name="Path 47" d="M291.245,373.24l2.187,3.6,17.739-.6,3.742-5.956,2.2-.1h.027l2.2.1,3.741,5.956,17.74.6,2.186-3.6,1.195-1.966.879.039v14.363l-26.941-.713-1.018-14.584-1.018,14.584-26.941.713V371.313l.879-.039Z" transform="translate(137.436 254.959)" fill="#c3d5ec"/>
      <path id="Path_48" data-name="Path 48" d="M148.826,364.006V346.647l29.754.789v15.512l-7.073.253Z" transform="translate(730.555 216.723)" fill="#c3d5ec"/>
      <path id="Path_49" data-name="Path 49" d="M151.153,353.922l22.681-.8v13.855l-.713.032-.968-1.594-1.773-2.919L156,362.98l-3.034,4.829-1.809.079Z" transform="translate(728.228 227.233)" fill="#c3d5ec"/>
      <path id="Path_50" data-name="Path 50" d="M156,371.769l14.383.489,1.773-2.919.968-1.594.713.032v11.646l-22.681-.6V366.862l1.809.079Z" transform="translate(728.228 249.562)" fill="#c3d5ec"/>
      <path id="Path_51" data-name="Path 51" d="M151.706,362.353l1.809-.079,3.034-4.829,14.384-.489,1.773,2.919v24.958l-1.773,2.919-14.384-.489-3.034-4.829-1.809-.079Z" transform="translate(727.675 233.47)" fill="#c3d5ec"/>
      <path id="Path_52" data-name="Path 52" d="M738.953,386.792l-384.677,16.6V391.677l198.582-8.057,186.095-7.551v7.551h2.48V371.845l22.676.6,7.078.195V383.62h379.741v148.73H23.9V392.378l292.57,14.187Z" transform="translate(137.946 257.658)" fill="#c3d5ec"/>
      <path id="Path_22" data-name="Path 22" d="M467.879,346.647v17.358l-22.68-.8-7.073-.253V347.436Z" transform="translate(-438.125 216.723)" fill="#c3d5ec"/>
      <path id="Path_23" data-name="Path 23" d="M467.879,371.846V389.2l-29.753-1.057V372.635l7.073-.189Z" transform="translate(-438.125 257.659)" fill="#c3d5ec"/>
      <path id="Path_24" data-name="Path 24" d="M455.963,362.98l-14.383-.489-1.773,2.919L438.838,367l-.713-.032V353.117l22.681.8v13.966L459,367.808Z" transform="translate(-431.052 227.233)" fill="#c3d5ec"/>
      <path id="Path_25" data-name="Path 25" d="M438.125,367.777l.713-.032.968,1.594,1.773,2.919,14.383-.489L459,366.94l1.809-.079v11.961l-22.681.6Z" transform="translate(-431.052 249.562)" fill="#c3d5ec"/>
      <path id="Path_26" data-name="Path 26" d="M454.281,387.263l-14.383.489-1.773-2.919V359.875l1.773-2.919,14.383.489,3.034,4.829,1.809.079v20l-1.809.079Z" transform="translate(-429.371 233.47)" fill="#c3d5ec"/>
    </g>
    <rect id="Rectangle_10" data-name="Rectangle 10" width="1121.116" height="72" transform="translate(1270.884 1035)" fill="#c3d5ec"/>
  </g>
</svg>
